<svg width="612" height="154" viewBox="0 0 612 154" fill="none" xmlns="http://www.w3.org/2000/svg">
<path d="M123 45.0001H119V41C119 39.9391 118.578 38.9217 117.828 38.1716C117.078 37.4214 116.061 37 115 37C113.939 37 112.922 37.4214 112.172 38.1716C111.421 38.9217 111 39.9391 111 41V45.0001H87V41C87 39.9391 86.5786 38.9217 85.8283 38.1716C85.0783 37.4214 84.061 37 82.9999 37C81.9391 37 80.9218 37.4214 80.1715 38.1716C79.4215 38.9217 79.0001 39.9391 79.0001 41V45.0001H75C71.8174 45.0001 68.765 46.2644 66.5148 48.5146C64.2643 50.7651 63 53.8174 63 57.0001V105C63 108.182 64.2643 111.235 66.5148 113.485C68.765 115.736 71.8174 117 75 117H123C126.183 117 129.235 115.736 131.485 113.485C133.736 111.235 135 108.182 135 105V57.0001C135 53.8174 133.736 50.7651 131.485 48.5146C129.235 46.2644 126.183 45.0001 123 45.0001ZM75 53H79.0001V57.0001C79.0001 58.0609 79.4215 59.0782 80.1715 59.8285C80.9218 60.5785 81.9391 60.9999 82.9999 60.9999C84.061 60.9999 85.0783 60.5785 85.8283 59.8285C86.5786 59.0782 87 58.0609 87 57.0001V53H111V57.0001C111 58.0609 111.421 59.0782 112.172 59.8285C112.922 60.5785 113.939 60.9999 115 60.9999C116.061 60.9999 117.078 60.5785 117.828 59.8285C118.578 59.0782 119 58.0609 119 57.0001V53H123C124.061 53 125.078 53.4214 125.828 54.1717C126.579 54.9217 127 55.939 127 57.0001V72.9999H70.9999V57.0001C70.9999 55.939 71.4214 54.9217 72.1716 54.1717C72.9216 53.4214 73.9392 53 75 53ZM123 109H75C73.9392 109 72.9216 108.578 72.1716 107.828C71.4214 107.078 70.9999 106.061 70.9999 105V81.0001H127V105C127 106.061 126.579 107.078 125.828 107.828C125.078 108.578 124.061 109 123 109Z" fill="#ECE3CA"/>
<path d="M82.9999 96.9999C85.2091 96.9999 87 95.209 87 93.0001C87 90.7909 85.2091 89 82.9999 89C80.791 89 79.0001 90.7909 79.0001 93.0001C79.0001 95.209 80.791 96.9999 82.9999 96.9999Z" fill="#ECE3CA"/>
<path d="M115 96.9999C117.209 96.9999 119 95.209 119 93.0001C119 90.7909 117.209 89 115 89C112.791 89 111 90.7909 111 93.0001C111 95.209 112.791 96.9999 115 96.9999Z" fill="#ECE3CA"/>
<path d="M103.68 96.92H94.56C93.9552 96.92 93.3754 97.3371 92.9477 98.0799C92.5202 98.8225 92.28 99.8297 92.28 100.88C92.28 101.93 92.5202 102.938 92.9477 103.68C93.3754 104.423 93.9552 104.84 94.56 104.84H103.68C104.285 104.84 104.865 104.423 105.292 103.68C105.72 102.938 105.96 101.93 105.96 100.88C105.96 99.8297 105.72 98.8225 105.292 98.0799C104.865 97.3371 104.285 96.92 103.68 96.92Z" fill="#ECE3CA"/>
<path d="M159.55 65.85C159.55 64.4167 160.6 63.7 162.7 63.7C163.6 63.7 165.317 63.7333 167.85 63.8C170.65 63.9333 172.767 64 174.2 64C175.367 64 176.783 63.9333 178.45 63.8C179.583 63.7333 180.3 63.7 180.6 63.7C182.433 63.7667 183.983 64.1 185.25 64.7C185.617 64.8667 185.917 65.0667 186.15 65.3C186.383 65.5333 186.5 65.9167 186.5 66.45C186.5 67.1833 186.267 67.8167 185.8 68.35C185.333 68.85 184.767 69.1 184.1 69.1C183.367 69.1 182.3 69 180.9 68.8C179.667 68.5667 178.583 68.45 177.65 68.45C176.75 68.45 176.067 68.4667 175.6 68.5C175.5 69.6 175.45 72.2333 175.45 76.4C175.45 81.3667 175.6 86.4 175.9 91.5L176 92.95C176 94.3167 175.217 95 173.65 95C172.417 95 171.583 94.7167 171.15 94.15C170.717 93.55 170.5 92.65 170.5 91.45C170.5 89.0833 170.433 86.1333 170.3 82.6C170.167 79.6667 170.1 77.5833 170.1 76.35C170.1 75.5167 170.2 72.9667 170.4 68.7L164.55 68.75C162.683 68.75 161.383 68.5833 160.65 68.25C159.917 67.8833 159.55 67.0833 159.55 65.85ZM192.227 62.9C193.394 63 194.411 63.3167 195.277 63.85C196.144 64.35 196.577 65.1167 196.577 66.15C196.577 66.9167 196.211 67.5333 195.477 68C194.777 68.4333 193.927 68.65 192.927 68.65C191.961 68.65 191.294 68.4 190.927 67.9C190.561 67.4 190.377 66.8833 190.377 66.35C190.377 65.35 190.477 64.5167 190.677 63.85C190.911 63.1833 191.427 62.8667 192.227 62.9ZM196.227 85.05V86.5C196.227 87.8 196.261 89.0333 196.327 90.2C196.427 91.3333 196.544 92.4833 196.677 93.65C196.644 93.9833 196.394 94.3333 195.927 94.7C195.461 95.0333 195.044 95.2 194.677 95.2C194.044 95.2 193.394 95.0833 192.727 94.85C192.094 94.5833 191.711 94.2667 191.577 93.9C191.377 92.8333 191.277 91.8833 191.277 91.05C191.277 88.3167 191.194 85.25 191.027 81.85C190.894 78.85 190.827 76.75 190.827 75.55C190.827 74.95 191.127 74.4333 191.727 74C192.327 73.5667 192.961 73.35 193.627 73.35C194.594 73.35 195.261 73.5667 195.627 74C196.027 74.4333 196.227 75.1167 196.227 76.05V85.05ZM220.22 78.3C220.22 79.7667 219.47 80.5 217.97 80.5C217.47 80.5 217.054 80.3833 216.72 80.15C216.387 79.9167 216.02 79.5667 215.62 79.1C214.62 78 213.754 77.45 213.02 77.45C212.054 77.45 211.104 77.7333 210.17 78.3C209.27 78.8667 208.537 79.6667 207.97 80.7C207.404 81.7333 207.12 82.8833 207.12 84.15C207.12 85.55 207.387 86.7167 207.92 87.65C208.487 88.5833 209.354 89.3833 210.52 90.05C210.954 90.2833 211.454 90.4667 212.02 90.6C212.62 90.7333 213.137 90.8 213.57 90.8C214.537 90.8 215.754 90.4167 217.22 89.65C217.754 89.3833 218.204 89.1833 218.57 89.05C218.937 88.9167 219.32 88.85 219.72 88.85C220.087 88.85 220.504 89.0167 220.97 89.35C221.437 89.6833 221.67 90.1 221.67 90.6C221.67 91.6 221.204 92.45 220.27 93.15C219.337 93.8167 218.187 94.3333 216.82 94.7C215.487 95.0333 214.204 95.2 212.97 95.2C211.004 95.2 209.17 94.75 207.47 93.85C205.804 92.95 204.47 91.7167 203.47 90.15C202.47 88.55 201.97 86.75 201.97 84.75C201.97 82.6167 202.454 80.6667 203.42 78.9C204.387 77.1333 205.687 75.75 207.32 74.75C208.954 73.75 210.737 73.25 212.67 73.25C213.77 73.25 214.904 73.45 216.07 73.85C217.237 74.25 218.22 74.8333 219.02 75.6C219.82 76.3667 220.22 77.2667 220.22 78.3ZM245.958 90.45C246.524 90.8833 246.908 91.3 247.108 91.7C247.308 92.1 247.408 92.6 247.408 93.2C247.408 93.7 247.141 94.1667 246.608 94.6C246.108 95 245.641 95.2 245.208 95.2C244.841 95.2 244.408 95.0833 243.908 94.85C243.408 94.6167 243.024 94.35 242.758 94.05C242.391 93.75 241.674 93.0167 240.608 91.85C239.574 90.6833 238.808 89.7667 238.308 89.1C237.108 87.6 236.508 86.85 236.508 86.85L234.758 84.7L231.558 87.3L231.758 92.75C231.758 93.65 231.524 94.2833 231.058 94.65C230.624 95.0167 230.191 95.2 229.758 95.2C229.124 95.2 228.558 95.0833 228.058 94.85C227.591 94.6167 227.308 94.35 227.208 94.05C226.841 92.7167 226.658 90.9667 226.658 88.8C226.658 84.7333 226.724 81.4833 226.858 79.05C226.991 76.0167 227.058 73.15 227.058 70.45C227.058 69.6167 226.958 68.4667 226.758 67C226.724 66.7 226.674 66.2167 226.608 65.55C226.541 64.8833 226.508 64.2833 226.508 63.75C226.508 62.9833 226.758 62.3833 227.258 61.95C227.791 61.5167 228.474 61.3 229.308 61.3C229.974 61.3 230.508 61.5167 230.908 61.95C231.341 62.35 231.558 62.9167 231.558 63.65C231.558 64.75 231.591 66.2 231.658 68C231.724 69.8 231.758 71.1167 231.758 71.95C231.758 72.9833 231.724 74.3667 231.658 76.1C231.591 77.0333 231.558 77.7333 231.558 78.2C231.558 79.6667 231.574 80.8833 231.608 81.85C232.808 80.6167 234.408 79.1833 236.408 77.55C238.441 75.8833 240.024 74.7167 241.158 74.05C242.424 73.2833 243.191 72.9 243.458 72.9C244.158 72.9 244.758 73.05 245.258 73.35C245.758 73.65 246.008 74.1 246.008 74.7C246.008 75.3 245.924 75.7667 245.758 76.1C245.591 76.4 245.291 76.7167 244.858 77.05L238.408 81.75C239.841 83.5167 241.324 85.3167 242.858 87.15C244.391 88.95 245.424 90.05 245.958 90.45ZM256.996 87.25C256.996 88.5167 257.179 89.5 257.546 90.2C257.946 90.8667 258.446 91.2 259.046 91.2C259.379 91.2 259.696 91.1833 259.996 91.15C260.296 91.0833 260.596 91.05 260.896 91.05C261.229 91.05 261.513 91.2167 261.746 91.55C262.013 91.8833 262.146 92.25 262.146 92.65C262.146 93.45 261.763 94.0833 260.996 94.55C260.263 94.9833 259.263 95.2 257.996 95.2C257.096 95.2 256.179 94.9333 255.246 94.4C254.346 93.8333 253.596 92.9667 252.996 91.8C252.396 90.6 252.096 89.1167 252.096 87.35C252.096 83.55 252.163 80.3333 252.296 77.7C252.463 74.5667 252.546 70.6167 252.546 65.85C252.546 64.35 252.629 63.3 252.796 62.7C252.996 62.2333 253.313 61.8833 253.746 61.65C254.213 61.3833 254.696 61.25 255.196 61.25C255.696 61.25 256.129 61.3333 256.496 61.5C256.896 61.6667 257.163 61.9333 257.296 62.3C257.429 62.7 257.513 63.1 257.546 63.5C257.613 63.8667 257.646 64.4 257.646 65.1C257.646 66.4667 257.596 67.7833 257.496 69.05C257.429 70.5833 257.396 71.7 257.396 72.4C257.129 78.2667 256.996 83.2167 256.996 87.25ZM265.056 83.55C265.056 81.5167 265.506 79.8333 266.406 78.5C267.306 77.1333 268.556 75.85 270.156 74.65C270.623 74.3167 271.406 74.0333 272.506 73.8C273.606 73.5333 274.573 73.4 275.406 73.4C276.406 73.4 277.456 73.6167 278.556 74.05C279.69 74.45 280.606 74.9167 281.306 75.45C282.54 76.35 283.39 77.4 283.856 78.6C284.323 79.7667 284.556 81.1667 284.556 82.8C284.556 83.5 284.156 84.1833 283.356 84.85C282.59 85.4833 281.756 85.8 280.856 85.8L278.956 85.75C277.99 85.75 276.606 85.7833 274.806 85.85L273.756 85.9C273.023 85.9667 272.473 86 272.106 86C271.573 86 270.84 85.9333 269.906 85.8C270.04 87.3667 270.623 88.6 271.656 89.5C272.69 90.3667 273.806 90.8 275.006 90.8C277.106 90.8 278.573 90.3833 279.406 89.55C280.106 89.05 280.573 88.7333 280.806 88.6C281.04 88.4667 281.406 88.4 281.906 88.4C282.44 88.4 282.906 88.65 283.306 89.15C283.706 89.65 283.906 90.15 283.906 90.65C283.906 91.2167 283.556 91.8 282.856 92.4C282.19 92.9667 281.273 93.5667 280.106 94.2C279.473 94.4667 278.606 94.7 277.506 94.9C276.406 95.1 275.49 95.2 274.756 95.2C273.59 95.2 272.29 94.8667 270.856 94.2C269.423 93.5 268.356 92.7333 267.656 91.9C266.956 91.0667 266.34 89.8833 265.806 88.35C265.306 86.8167 265.056 85.2167 265.056 83.55ZM275.006 82.2C277.373 82.2 279.106 82.1167 280.206 81.95C280.14 80.9833 279.84 80.2 279.306 79.6C278.773 78.9667 278.04 78.4333 277.106 78C276.806 77.8667 276.54 77.7667 276.306 77.7C276.073 77.6333 275.806 77.6 275.506 77.6C273.973 77.6 272.673 78.0167 271.606 78.85C270.573 79.6833 269.956 80.75 269.756 82.05C271.423 82.15 273.173 82.2 275.006 82.2ZM287.187 65.85C287.187 64.4167 288.237 63.7 290.337 63.7C291.237 63.7 292.953 63.7333 295.487 63.8C298.287 63.9333 300.403 64 301.837 64C303.003 64 304.42 63.9333 306.087 63.8C307.22 63.7333 307.937 63.7 308.237 63.7C310.07 63.7667 311.62 64.1 312.887 64.7C313.253 64.8667 313.553 65.0667 313.787 65.3C314.02 65.5333 314.137 65.9167 314.137 66.45C314.137 67.1833 313.903 67.8167 313.437 68.35C312.97 68.85 312.403 69.1 311.737 69.1C311.003 69.1 309.937 69 308.537 68.8C307.303 68.5667 306.22 68.45 305.287 68.45C304.387 68.45 303.703 68.4667 303.237 68.5C303.137 69.6 303.087 72.2333 303.087 76.4C303.087 81.3667 303.237 86.4 303.537 91.5L303.637 92.95C303.637 94.3167 302.853 95 301.287 95C300.053 95 299.22 94.7167 298.787 94.15C298.353 93.55 298.137 92.65 298.137 91.45C298.137 89.0833 298.07 86.1333 297.937 82.6C297.803 79.6667 297.737 77.5833 297.737 76.35C297.737 75.5167 297.837 72.9667 298.037 68.7L292.187 68.75C290.32 68.75 289.02 68.5833 288.287 68.25C287.553 67.8833 287.187 67.0833 287.187 65.85ZM319.764 62.9C320.931 63 321.931 63.3167 322.764 63.85C323.631 64.35 324.064 65.1167 324.064 66.15C324.064 66.9167 323.714 67.5333 323.014 68C322.314 68.4333 321.447 68.65 320.414 68.65C319.447 68.65 318.781 68.4 318.414 67.9C318.047 67.4 317.864 66.8833 317.864 66.35C317.864 65.3833 317.981 64.5667 318.214 63.9C318.447 63.2 318.964 62.8667 319.764 62.9ZM318.764 83.55V82.1C318.764 80.4333 318.681 78.9167 318.514 77.55C318.381 76.15 318.297 75.2833 318.264 74.95C318.297 74.5833 318.547 74.2333 319.014 73.9C319.481 73.5667 319.897 73.4 320.264 73.4C320.897 73.4 321.531 73.5333 322.164 73.8C322.831 74.0333 323.247 74.3333 323.414 74.7C323.581 75.9333 323.664 76.8833 323.664 77.55C323.664 79.0167 323.731 81.4167 323.864 84.75L323.914 86.7L324.014 88.6C324.047 89.1333 324.081 89.7667 324.114 90.5C324.147 91.2333 324.164 92.0667 324.164 93C324.164 93.6333 323.847 94.1667 323.214 94.6C322.614 95.0333 321.981 95.25 321.314 95.25C320.347 95.25 319.664 95.0333 319.264 94.6C318.897 94.1667 318.714 93.4833 318.714 92.55L318.764 83.55ZM361.559 93.25C361.059 92.3167 360.743 91.2833 360.609 90.15C360.476 88.9833 360.409 87.3833 360.409 85.35C360.409 83.4167 360.143 81.7333 359.609 80.3C359.076 78.8667 357.976 78.15 356.309 78.15C355.676 78.15 355.043 78.35 354.409 78.75C353.809 79.1167 353.359 79.5833 353.059 80.15C352.593 81.05 352.276 82.0333 352.109 83.1C351.943 84.1333 351.859 85.3333 351.859 86.7C351.859 87.5667 351.909 88.45 352.009 89.35C352.009 89.6167 352.026 90.05 352.059 90.65C352.126 91.2167 352.159 91.7333 352.159 92.2C352.159 94.2 351.459 95.2 350.059 95.2C348.226 95.2 347.259 94.2333 347.159 92.3C347.159 90.9333 347.176 90.2 347.209 90.1V87.95C347.209 86.75 347.159 85.5833 347.059 84.45C346.959 83.3167 346.843 82.4667 346.709 81.9C346.409 80.8 346.009 79.95 345.509 79.35C345.043 78.75 344.293 78.45 343.259 78.45C341.793 78.45 340.609 79.0833 339.709 80.35C339.076 81.35 338.659 82.5667 338.459 84C338.259 85.8333 338.109 87.2833 338.009 88.35C337.943 89.3833 337.909 90.5833 337.909 91.95C337.909 92.9167 337.743 93.7 337.409 94.3C337.109 94.9 336.526 95.2 335.659 95.2C335.026 95.2 334.359 95.0333 333.659 94.7C332.993 94.3333 332.659 93.85 332.659 93.25C332.659 92.6167 332.726 91.9833 332.859 91.35C333.159 89.45 333.309 86.05 333.309 81.15C333.309 80.35 333.109 79.5833 332.709 78.85C332.343 78.0833 331.893 77.7 331.359 77.7C331.226 77.7 330.976 77.7667 330.609 77.9C330.276 78.0333 330.026 78.1 329.859 78.1C329.426 78.1 329.026 77.9 328.659 77.5C328.326 77.1 328.159 76.7667 328.159 76.5C328.159 75.6667 328.559 74.9667 329.359 74.4C330.193 73.8 331.059 73.5 331.959 73.5C333.193 73.5 334.243 73.8833 335.109 74.65C335.976 75.4167 336.643 76.4833 337.109 77.85C337.876 76.5167 338.909 75.45 340.209 74.65C341.509 73.8167 342.959 73.4 344.559 73.4C345.559 73.4 346.359 73.5333 346.959 73.8C347.593 74.0333 348.109 74.3833 348.509 74.85C348.909 75.2833 349.426 75.95 350.059 76.85C350.893 75.7833 351.959 74.95 353.259 74.35C354.593 73.75 355.959 73.45 357.359 73.45C359.026 73.45 360.526 74.1333 361.859 75.5C363.193 76.8333 364.093 78.3833 364.559 80.15C364.793 81.05 364.909 82.7833 364.909 85.35L365.109 88.25C365.276 89.9833 365.843 91.0333 366.809 91.4C367.943 91.7333 368.509 92.0833 368.509 92.45C368.509 93.25 368.309 93.8333 367.909 94.2C367.609 94.4 367.193 94.6167 366.659 94.85C366.126 95.0833 365.709 95.2 365.409 95.2C363.609 95.2 362.326 94.55 361.559 93.25ZM371.65 84.4C371.65 83.1333 371.884 81.8667 372.35 80.6C372.817 79.3 373.434 78.1167 374.2 77.05C374.967 75.9833 376.184 75.1167 377.85 74.45C379.517 73.75 381 73.4 382.3 73.4C383.634 73.4 384.984 73.5833 386.35 73.95C387.75 74.3167 388.717 74.8833 389.25 75.65C390.484 77.3833 391.1 79.0833 391.1 80.75C391.1 81.65 390.9 82.4167 390.5 83.05C390.134 83.6833 389.6 84.3667 388.9 85.1C388.334 85.7 387.434 86.1 386.2 86.3C385 86.5 383.8 86.6 382.6 86.6C381.834 86.6 380.9 86.5333 379.8 86.4C378.7 86.2333 377.634 86.0333 376.6 85.8C376.667 86.4667 376.834 87.1167 377.1 87.75C377.367 88.3833 377.684 88.8667 378.05 89.2C378.717 89.8333 379.4 90.2333 380.1 90.4C380.834 90.5667 381.767 90.65 382.9 90.65C384.1 90.65 385.217 90.45 386.25 90.05C387.084 89.75 387.767 89.6 388.3 89.6C388.934 89.6 389.417 89.8 389.75 90.2C390.084 90.5667 390.25 91.05 390.25 91.65C390.25 92.4833 389.767 93.1667 388.8 93.7C387.834 94.2333 386.717 94.6333 385.45 94.9C384.217 95.1333 383.217 95.25 382.45 95.25C380.884 95.25 379.367 94.9667 377.9 94.4C376.434 93.8333 375.217 93.0333 374.25 92C373.45 91.0667 372.817 89.95 372.35 88.65C371.884 87.3167 371.65 85.9 371.65 84.4ZM382.55 77.65C381.817 77.65 381.084 77.8 380.35 78.1C379.617 78.3667 379.017 78.75 378.55 79.25C377.95 79.8833 377.534 80.4 377.3 80.8C377.1 81.1667 376.967 81.6833 376.9 82.35C377.734 82.6167 379.467 82.75 382.1 82.75C383.534 82.75 384.634 82.5333 385.4 82.1C386.2 81.6667 386.6 81.1 386.6 80.4C386.6 79.7 386.167 79.0667 385.3 78.5C384.434 77.9333 383.517 77.65 382.55 77.65ZM421.059 83.7C419.792 83.7 418.709 83.6667 417.809 83.6C416.942 83.5 415.792 83.35 414.359 83.15C414.359 84.5833 414.326 86.3333 414.259 88.4L414.209 92.25C414.209 93.1167 413.976 93.8 413.509 94.3C413.042 94.7667 412.492 95 411.859 95C410.759 95 409.942 94.8667 409.409 94.6C408.909 94.3 408.659 93.7833 408.659 93.05C408.659 91.75 408.726 90.3833 408.859 88.95C409.259 85.4833 409.459 81.5833 409.459 77.25C409.459 74.2167 409.376 71.3667 409.209 68.7C408.642 68.4667 408.142 68.1667 407.709 67.8C407.309 67.4333 407.092 67.0667 407.059 66.7C407.059 65.8333 407.376 65.1333 408.009 64.6C408.642 64.0667 409.609 63.8 410.909 63.8C411.976 63.8 413.292 63.7167 414.859 63.55C415.226 63.5167 415.859 63.4667 416.759 63.4C417.659 63.3333 418.442 63.3 419.109 63.3C421.842 63.3 423.959 63.5667 425.459 64.1C426.992 64.6333 428.526 65.5167 430.059 66.75C431.726 69.35 432.559 71.1833 432.559 72.25C432.559 75.6833 431.542 78.45 429.509 80.55C427.509 82.65 424.692 83.7 421.059 83.7ZM419.959 67.55C418.892 67.55 417.942 67.6167 417.109 67.75C416.309 67.85 415.376 68.0333 414.309 68.3C414.476 70.8667 414.559 73.1 414.559 75C414.559 76.4333 414.509 77.6333 414.409 78.6C415.842 78.9 416.959 79.1 417.759 79.2C418.592 79.2667 419.526 79.3 420.559 79.3C423.026 79.3 424.759 78.6667 425.759 77.4C426.792 76.1333 427.309 74.6333 427.309 72.9C427.309 72.4 427.159 71.7833 426.859 71.05C426.592 70.3167 426.342 69.8333 426.109 69.6C425.209 68.8 424.326 68.2667 423.459 68C422.592 67.7 421.426 67.55 419.959 67.55ZM441.957 87.25C441.957 88.5167 442.14 89.5 442.507 90.2C442.907 90.8667 443.407 91.2 444.007 91.2C444.34 91.2 444.657 91.1833 444.957 91.15C445.257 91.0833 445.557 91.05 445.857 91.05C446.19 91.05 446.474 91.2167 446.707 91.55C446.974 91.8833 447.107 92.25 447.107 92.65C447.107 93.45 446.724 94.0833 445.957 94.55C445.224 94.9833 444.224 95.2 442.957 95.2C442.057 95.2 441.14 94.9333 440.207 94.4C439.307 93.8333 438.557 92.9667 437.957 91.8C437.357 90.6 437.057 89.1167 437.057 87.35C437.057 83.55 437.124 80.3333 437.257 77.7C437.424 74.5667 437.507 70.6167 437.507 65.85C437.507 64.35 437.59 63.3 437.757 62.7C437.957 62.2333 438.274 61.8833 438.707 61.65C439.174 61.3833 439.657 61.25 440.157 61.25C440.657 61.25 441.09 61.3333 441.457 61.5C441.857 61.6667 442.124 61.9333 442.257 62.3C442.39 62.7 442.474 63.1 442.507 63.5C442.574 63.8667 442.607 64.4 442.607 65.1C442.607 66.4667 442.557 67.7833 442.457 69.05C442.39 70.5833 442.357 71.7 442.357 72.4C442.09 78.2667 441.957 83.2167 441.957 87.25ZM469.517 95.2C468.384 95.2 467.517 95.0333 466.917 94.7C466.317 94.3333 465.667 93.6667 464.967 92.7C464.101 93.4667 462.801 94.0833 461.067 94.55C459.367 95.0167 457.901 95.25 456.667 95.25C454.634 95.25 452.984 94.7 451.717 93.6C450.484 92.4667 449.867 90.8167 449.867 88.65C449.867 87.7167 450.117 86.8667 450.617 86.1C451.151 85.3 451.834 84.6 452.667 84C453.601 83.3667 454.701 82.8667 455.967 82.5C457.267 82.1333 458.451 81.95 459.517 81.95C461.317 81.95 462.917 82.1167 464.317 82.45V82.4C464.317 80.6 463.867 79.3667 462.967 78.7C462.101 78 460.701 77.65 458.767 77.65C457.534 77.65 456.467 78.2 455.567 79.3C455.234 79.7333 454.534 79.95 453.467 79.95C452.934 79.95 452.534 79.7333 452.267 79.3C452.034 78.8333 451.917 78.3667 451.917 77.9C451.917 76.9333 452.317 76.1 453.117 75.4C453.951 74.7 454.951 74.1833 456.117 73.85C457.284 73.4833 458.367 73.3 459.367 73.3C460.334 73.3 461.484 73.5 462.817 73.9C464.151 74.3 465.234 74.8333 466.067 75.5C467.067 76.3667 467.834 77.3833 468.367 78.55C468.934 79.6833 469.217 80.9333 469.217 82.3C469.217 82.7333 469.184 83.3833 469.117 84.25C469.051 85.25 469.017 86.0667 469.017 86.7C469.017 87 468.984 87.3833 468.917 87.85C468.851 88.45 468.817 88.95 468.817 89.35C468.817 89.7833 468.951 90.2 469.217 90.6C469.484 91 469.851 91.3333 470.317 91.6C470.751 91.8333 471.034 92.0833 471.167 92.35C471.301 92.6167 471.367 92.9167 471.367 93.25C471.367 93.5833 471.151 94 470.717 94.5C470.317 94.9667 469.917 95.2 469.517 95.2ZM459.517 85.65C458.217 85.65 457.067 85.9 456.067 86.4C455.067 86.9 454.567 87.7833 454.567 89.05C454.567 89.6833 454.784 90.2167 455.217 90.65C455.684 91.0833 456.184 91.3 456.717 91.3C458.151 91.3 459.351 91.15 460.317 90.85C461.284 90.55 462.451 90 463.817 89.2C463.984 88.6667 464.084 87.9167 464.117 86.95C464.117 86.5833 464.134 86.3 464.167 86.1C462.367 85.8 460.817 85.65 459.517 85.65ZM497.927 91.15C498.093 91.2167 498.36 91.3 498.727 91.4C499.093 91.5 499.36 91.6 499.527 91.7C499.693 91.8 499.777 91.95 499.777 92.15C499.81 92.95 499.51 93.6167 498.877 94.15C498.277 94.65 497.56 94.9 496.727 94.9C495.427 94.9 494.41 94.55 493.677 93.85C492.943 93.15 492.41 92.0833 492.077 90.65C491.943 90.0833 491.877 89.3 491.877 88.3C491.877 87.7333 491.91 86.8167 491.977 85.55C492.043 84.2167 492.077 83.15 492.077 82.35C492.077 80.9167 491.927 79.8333 491.627 79.1C491.327 78.3333 490.61 77.95 489.477 77.95C488.31 77.95 487.26 78.4167 486.327 79.35C485.427 80.2833 484.66 81.6833 484.027 83.55C483.16 86.15 482.677 89.6 482.577 93.9C482.577 94.1333 482.327 94.4167 481.827 94.75C481.36 95.05 480.793 95.2 480.127 95.2C478.893 95.2 478.127 94.55 477.827 93.25L477.777 92.4C477.777 92.1 477.81 91.75 477.877 91.35C478.277 89.0167 478.477 86.9833 478.477 85.25C478.477 84.4833 478.46 83.8833 478.427 83.45L478.377 81.1C478.377 80.3 478.177 79.5333 477.777 78.8C477.377 78.0333 476.91 77.65 476.377 77.65C476.21 77.65 475.977 77.7167 475.677 77.85C475.377 77.95 475.127 78 474.927 78C474.593 78 474.227 77.8333 473.827 77.5C473.46 77.1667 473.277 76.8167 473.277 76.45C473.277 75.75 473.51 75.1833 473.977 74.75C474.477 74.35 474.96 74.0333 475.427 73.8C475.927 73.5667 476.493 73.45 477.127 73.45C477.66 73.45 478.093 73.5 478.427 73.6C478.76 73.7 479.21 73.9167 479.777 74.25C480.11 74.4167 480.493 74.8833 480.927 75.65C481.36 76.4167 481.693 77.5 481.927 78.9C482.593 77.6667 483.71 76.3667 485.277 75C486.443 73.9333 488.127 73.4 490.327 73.4C492.327 73.4 493.91 74.1333 495.077 75.6C496.243 77.0333 496.827 79.0167 496.827 81.55C496.827 82.05 496.793 82.8667 496.727 84C496.627 84.9 496.577 85.85 496.577 86.85C496.577 89.1833 497.027 90.6167 497.927 91.15ZM526.296 91.15C526.462 91.2167 526.729 91.3 527.096 91.4C527.462 91.5 527.729 91.6 527.896 91.7C528.062 91.8 528.146 91.95 528.146 92.15C528.179 92.95 527.879 93.6167 527.246 94.15C526.646 94.65 525.929 94.9 525.096 94.9C523.796 94.9 522.779 94.55 522.046 93.85C521.312 93.15 520.779 92.0833 520.446 90.65C520.312 90.0833 520.246 89.3 520.246 88.3C520.246 87.7333 520.279 86.8167 520.346 85.55C520.412 84.2167 520.446 83.15 520.446 82.35C520.446 81.1833 520.112 80.1667 519.446 79.3C518.812 78.4 517.912 77.95 516.746 77.95C516.046 77.95 515.312 78.1667 514.546 78.6C513.779 79 513.246 79.5 512.946 80.1C512.446 81.0667 512.096 82.1167 511.896 83.25C511.529 85.25 511.346 87.3333 511.346 89.5C511.346 90.5333 511.362 91.3333 511.396 91.9C511.396 92.0333 511.396 92.3 511.396 92.7C511.429 93.0667 511.396 93.4167 511.296 93.75C511.229 94.05 511.096 94.3333 510.896 94.6C510.729 94.7667 510.462 94.9 510.096 95C509.762 95.1333 509.446 95.2 509.146 95.2C508.679 95.2 508.096 95 507.396 94.6C506.696 94.2 506.296 93.75 506.196 93.25L506.146 92.4C506.146 92.1 506.179 91.75 506.246 91.35C506.646 89.0167 506.846 86.9833 506.846 85.25C506.846 84.4833 506.829 83.8833 506.796 83.45L506.746 81.1C506.746 80.3 506.546 79.5333 506.146 78.8C505.746 78.0333 505.279 77.65 504.746 77.65C504.579 77.65 504.346 77.7167 504.046 77.85C503.746 77.95 503.496 78 503.296 78C502.962 78 502.596 77.8333 502.196 77.5C501.829 77.1667 501.646 76.8167 501.646 76.45C501.646 75.75 501.879 75.1833 502.346 74.75C502.846 74.35 503.329 74.0333 503.796 73.8C504.296 73.5667 504.862 73.45 505.496 73.45C506.029 73.45 506.462 73.5 506.796 73.6C507.129 73.7 507.579 73.9167 508.146 74.25C508.446 74.4167 508.796 74.7833 509.196 75.35C509.596 75.9167 509.929 76.7167 510.196 77.75C511.062 76.15 512.129 75.0333 513.396 74.4C514.696 73.7333 516.346 73.4 518.346 73.4C519.112 73.4 519.929 73.65 520.796 74.15C521.696 74.65 522.462 75.2333 523.096 75.9C523.696 76.6333 524.196 77.55 524.596 78.65C524.996 79.7167 525.196 80.6833 525.196 81.55C525.196 82.05 525.162 82.8667 525.096 84C524.996 84.9 524.946 85.85 524.946 86.85C524.946 89.1833 525.396 90.6167 526.296 91.15ZM531.367 83.7C531.367 82.5 531.584 81.3833 532.017 80.35C532.451 79.2833 533.084 78.1833 533.917 77.05C534.751 75.9167 535.901 75.0333 537.367 74.4C538.834 73.7333 540.434 73.4 542.167 73.4C543.501 73.4 544.784 73.6833 546.017 74.25C547.284 74.7833 548.417 75.45 549.417 76.25C549.551 76.4833 549.784 76.9167 550.117 77.55C550.451 78.15 550.684 78.7 550.817 79.2C550.984 79.7 551.067 80.2167 551.067 80.75C551.067 82.9833 550.251 84.4833 548.617 85.25C546.984 85.9833 544.917 86.35 542.417 86.35C539.917 86.35 537.884 86.1833 536.317 85.85C536.384 86.4833 536.551 87.1167 536.817 87.75C537.084 88.3833 537.401 88.8667 537.767 89.2C538.434 89.8333 539.084 90.25 539.717 90.45C540.384 90.6167 541.267 90.7 542.367 90.7C544.034 90.7 545.334 90.3833 546.267 89.75C547.134 89.1833 547.801 88.9 548.267 88.9C548.901 88.9 549.384 89.1 549.717 89.5C550.051 89.8667 550.217 90.35 550.217 90.95C550.217 92.2167 549.401 93.25 547.767 94.05C546.167 94.85 544.351 95.25 542.317 95.25C540.717 95.25 539.134 94.9667 537.567 94.4C536.001 93.8333 534.751 93.0333 533.817 92C533.184 90.9333 532.617 89.6333 532.117 88.1C531.617 86.5667 531.367 85.1 531.367 83.7ZM542.367 77.5C541.634 77.5 540.867 77.6333 540.067 77.9C539.301 78.1333 538.701 78.5 538.267 79C537.734 79.5667 537.334 80.0833 537.067 80.55C536.834 81.0167 536.684 81.6 536.617 82.3C536.984 82.3 537.334 82.3167 537.667 82.35C538.001 82.3833 538.317 82.4167 538.617 82.45C540.084 82.5833 541.184 82.65 541.917 82.65C543.384 82.65 544.501 82.4333 545.267 82C546.067 81.5667 546.467 80.9833 546.467 80.25C546.467 79.55 546.017 78.9167 545.117 78.35C544.251 77.7833 543.334 77.5 542.367 77.5ZM556.088 77.45C555.222 76.85 554.788 76.2167 554.788 75.55C554.788 75.0833 554.988 74.65 555.388 74.25C555.788 73.85 556.388 73.65 557.188 73.65C558.122 73.65 558.955 73.9 559.688 74.4C560.455 74.8667 560.988 75.55 561.288 76.45C562.055 75.55 562.922 74.8333 563.888 74.3C564.888 73.7667 565.905 73.5 566.938 73.5C568.172 73.5 569.288 73.8333 570.288 74.5C571.288 75.1667 571.788 76.0667 571.788 77.2C571.788 77.8333 571.505 78.4833 570.938 79.15C570.405 79.8167 569.855 80.15 569.288 80.15C568.988 80.15 568.722 80.0833 568.488 79.95C568.288 79.7833 568.038 79.55 567.738 79.25C567.405 78.9167 567.122 78.6833 566.888 78.55C566.655 78.3833 566.388 78.3 566.088 78.3C565.555 78.3 565.055 78.3833 564.588 78.55C564.122 78.7167 563.805 78.9167 563.638 79.15C563.105 79.9833 562.705 80.7333 562.438 81.4C562.205 82.0667 562.088 82.7833 562.088 83.55C562.088 84.1167 562.072 84.5667 562.038 84.9L561.988 87.75C561.988 88.1833 562.005 88.6667 562.038 89.2C562.072 89.7333 562.105 90.1333 562.138 90.4C562.238 91.3 562.288 92.1667 562.288 93C562.288 93.5667 562.072 94.0667 561.638 94.5C561.205 94.9333 560.672 95.15 560.038 95.15C559.038 95.15 558.305 94.9667 557.838 94.6C557.372 94.2 557.138 93.4833 557.138 92.45L557.088 89.25C557.055 88.6167 557.038 87.7167 557.038 86.55L557.088 83.25C557.155 81.65 557.188 80.35 557.188 79.35C557.188 78.9833 557.105 78.65 556.938 78.35C556.805 78.05 556.522 77.75 556.088 77.45Z" fill="#ECE3CA"/>
</svg>
