<svg width="500" height="500" viewBox="0 0 500 500" fill="none" xmlns="http://www.w3.org/2000/svg">
<path d="M350 116.667H333.333V100C333.333 95.5797 331.577 91.3405 328.452 88.2149C325.326 85.0893 321.087 83.3333 316.667 83.3333C312.246 83.3333 308.007 85.0893 304.882 88.2149C301.756 91.3405 300 95.5797 300 100V116.667H200V100C200 95.5797 198.244 91.3405 195.118 88.2149C191.993 85.0893 187.754 83.3333 183.333 83.3333C178.913 83.3333 174.674 85.0893 171.548 88.2149C168.423 91.3405 166.667 95.5797 166.667 100V116.667H150C136.739 116.667 124.021 121.935 114.645 131.311C105.268 140.688 100 153.406 100 166.667V366.667C100 379.927 105.268 392.645 114.645 402.022C124.021 411.399 136.739 416.667 150 416.667H350C363.261 416.667 375.979 411.399 385.355 402.022C394.732 392.645 400 379.927 400 366.667V166.667C400 153.406 394.732 140.688 385.355 131.311C375.979 121.935 363.261 116.667 350 116.667ZM150 150H166.667V166.667C166.667 171.087 168.423 175.326 171.548 178.452C174.674 181.577 178.913 183.333 183.333 183.333C187.754 183.333 191.993 181.577 195.118 178.452C198.244 175.326 200 171.087 200 166.667V150H300V166.667C300 171.087 301.756 175.326 304.882 178.452C308.007 181.577 312.246 183.333 316.667 183.333C321.087 183.333 325.326 181.577 328.452 178.452C331.577 175.326 333.333 171.087 333.333 166.667V150H350C354.42 150 358.66 151.756 361.785 154.882C364.911 158.007 366.667 162.246 366.667 166.667V233.333H133.333V166.667C133.333 162.246 135.089 158.007 138.215 154.882C141.34 151.756 145.58 150 150 150ZM350 383.333H150C145.58 383.333 141.34 381.577 138.215 378.452C135.089 375.326 133.333 371.087 133.333 366.667V266.667H366.667V366.667C366.667 371.087 364.911 375.326 361.785 378.452C358.66 381.577 354.42 383.333 350 383.333Z" fill="white"/>
<path d="M183.333 333.333C192.538 333.333 200 325.871 200 316.667C200 307.462 192.538 300 183.333 300C174.129 300 166.667 307.462 166.667 316.667C166.667 325.871 174.129 333.333 183.333 333.333Z" fill="white"/>
<path d="M316.667 333.333C325.871 333.333 333.333 325.871 333.333 316.667C333.333 307.462 325.871 300 316.667 300C307.462 300 300 307.462 300 316.667C300 325.871 307.462 333.333 316.667 333.333Z" fill="white"/>
<path d="M269.5 333H231.5C228.98 333 226.564 334.738 224.782 337.833C223.001 340.927 222 345.124 222 349.5C222 353.876 223.001 358.073 224.782 361.167C226.564 364.262 228.98 366 231.5 366H269.5C272.02 366 274.436 364.262 276.218 361.167C277.999 358.073 279 353.876 279 349.5C279 345.124 277.999 340.927 276.218 337.833C274.436 334.738 272.02 333 269.5 333Z" fill="white"/>
</svg>
